<svg xmlns="http://www.w3.org/2000/svg" viewBox="0 0 113.11 108.38"><defs><style>.cls-1{fill:#fff;}.cls-2{fill:#383434;}</style></defs><title>detect errorAsset 2</title><g id="Layer_2" data-name="Layer 2"><g id="Layer_1-2" data-name="Layer 1"><path class="cls-1" d="M47,21.94,22.9,63.62a2.88,2.88,0,0,0,2.49,4.32H73.52A2.88,2.88,0,0,0,76,63.62L51.94,21.94A2.87,2.87,0,0,0,47,21.94Z"/><path class="cls-2" d="M73.52,70.44H25.39a5.38,5.38,0,0,1-4.66-8.07L44.8,20.69a5.37,5.37,0,0,1,9.31,0L78.18,62.37a5.38,5.38,0,0,1-4.66,8.07ZM49.45,23a.35.35,0,0,0-.32.19L25.06,64.87a.38.38,0,0,0,.33.57H73.52a.36.36,0,0,0,.33-.19.4.4,0,0,0,0-.38L49.78,23.19A.35.35,0,0,0,49.45,23Z"/><text/><polygon class="cls-2" points="48.8 56 50.08 55.13 52 33 46.89 33 48.8 56"/><circle class="cls-2" cx="49.5" cy="60.5" r="2.5"/><path class="cls-2" d="M96.91,105.2,80.17,89.85A3.7,3.7,0,0,1,80,84.48l1.63-1.63a4.09,4.09,0,0,1,5.6-.13L104,98.07a3.7,3.7,0,0,1,.12,5.37l-1.63,1.64A4.09,4.09,0,0,1,96.91,105.2Z"/><path class="cls-2" d="M103.05,108.38a8.53,8.53,0,0,1-5.77-2.22L80.54,90.81a8.06,8.06,0,0,1-.28-11.69l1.63-1.64a8.63,8.63,0,0,1,11.83-.26l16.75,15.35a8.06,8.06,0,0,1,.27,11.68l-1.63,1.64A8.49,8.49,0,0,1,103.05,108.38ZM87.12,84.81,103,99.41l.84-.85L88,84Z"/><path class="cls-2" d="M49.5,99A49.5,49.5,0,1,1,99,49.5,49.56,49.56,0,0,1,49.5,99Zm0-90A40.5,40.5,0,1,0,90,49.5,40.55,40.55,0,0,0,49.5,9Z"/><path class="cls-2" d="M49.5,95A45.5,45.5,0,1,1,95,49.5,45.55,45.55,0,0,1,49.5,95Zm0-86A40.5,40.5,0,1,0,90,49.5,40.55,40.55,0,0,0,49.5,9Z"/><path class="cls-2" d="M49.5,95A45.5,45.5,0,1,1,95,49.5,45.55,45.55,0,0,1,49.5,95Zm0-86A40.5,40.5,0,1,0,90,49.5,40.55,40.55,0,0,0,49.5,9Z"/></g></g></svg>