<svg xmlns="http://www.w3.org/2000/svg" viewBox="0 0 164 122"><defs><style>.cls-1{fill:#fff;}.cls-2{fill:#383434;}</style></defs><title>guiAsset 1</title><g id="Layer_2" data-name="Layer 2"><g id="Layer_1-2" data-name="Layer 1"><rect class="cls-1" x="2.96" y="4" width="157.08" height="115" rx="4.5"/><path class="cls-2" d="M156.14,122H7.86A8,8,0,0,1,0,114V8A8,8,0,0,1,7.86,0H156.14A8,8,0,0,1,164,8V114A8,8,0,0,1,156.14,122ZM6.92,8V114a1,1,0,0,0,1,1H156.1a1,1,0,0,0,1-1V8a1,1,0,0,0-1-1H7.9A1,1,0,0,0,6.92,8Z"/><rect class="cls-1" x="9" y="5" width="147" height="4"/><rect class="cls-2" x="5" y="1" width="155" height="12"/><circle class="cls-1" cx="12" cy="7" r="3"/><circle class="cls-1" cx="22" cy="7" r="3"/><circle class="cls-1" cx="31" cy="7" r="3"/><rect class="cls-2" x="7" y="18.01" width="153" height="0.98"/><rect class="cls-2" x="38.2" y="19" width="0.6" height="96"/><path class="cls-2" d="M39,116H38V18h1Zm-.6-2h.2V20h-.2Z"/><rect class="cls-2" x="9" y="15" width="7" height="1"/><rect class="cls-2" x="18" y="15" width="7" height="1"/><rect class="cls-2" x="27" y="15" width="7" height="1"/><rect class="cls-2" x="36" y="15" width="7" height="1"/><rect class="cls-2" x="52" y="38" width="17" height="6"/><rect class="cls-2" x="114" y="49" width="17" height="6"/><rect class="cls-2" x="52" y="66" width="17" height="6"/><rect class="cls-2" x="79" y="49" width="17" height="6"/><rect class="cls-1" x="6" y="62" width="32" height="54"/><path class="cls-2" d="M39,116H6V61H39ZM7,115H38V62H7Z"/><path class="cls-1" d="M68.5,40.5c8,0,10.5,11.17,10.5,11.17"/><path class="cls-2" d="M79,51.78C79,51.67,76.5,41,69,41V40c8.3,0,10.88,11.09,11,11.56Z"/><path class="cls-1" d="M69.5,69.5c7.21-2.43,2.18-18.15,10-16"/><path class="cls-2" d="M69.66,70,69.34,69c3.16-1.07,3.77-5,4.36-8.8.46-3,.89-5.8,2.64-6.93A3.91,3.91,0,0,1,79.63,53l-.26,1a3,3,0,0,0-2.48.16c-1.38.89-1.78,3.49-2.21,6.25C74.08,64.29,73.39,68.71,69.66,70Z"/><line class="cls-1" x1="116" y1="52" x2="96" y2="52"/><rect class="cls-2" x="96" y="51" width="20" height="1"/></g></g></svg>