<svg xmlns="http://www.w3.org/2000/svg" viewBox="0 0 172.55 172.27"><defs><style>.cls-1{fill:none;stroke-width:8px;}.cls-1,.cls-2,.cls-4,.cls-5,.cls-6{stroke:#383434;stroke-miterlimit:10;}.cls-2{fill:#fff;stroke-width:7px;}.cls-3,.cls-4,.cls-5,.cls-6{fill:#383434;}.cls-4{stroke-width:5px;}.cls-5{stroke-width:3px;}</style></defs><title>no programmingAsset 1</title><g id="Layer_2" data-name="Layer 2"><g id="Layer_1-2" data-name="Layer 1"><path class="cls-1" d="M156.3,129.21c16.47-27.1,16.7-62.92-1.55-89.22C137,14.42,105-.11,74.05,5,44.49,9.94,17.88,31.41,8.11,59.93c-10.21,29.79-.87,64.6,22.06,86,23.09,21.53,58.61,28.71,87.86,16.24a77.56,77.56,0,0,0,10.8-5.65"/><rect class="cls-2" x="32.96" y="47.15" width="107.42" height="73.24"/><path class="cls-3" d="M80.4,89.1l-9.69-3.57V83l9.69-3.58V82l-7.15,2.2v.17l7.15,2.21Z"/><path class="cls-3" d="M82.23,92.77l7.34-17h2.6l-7.34,17Z"/><path class="cls-3" d="M93.9,89.1V86.55l7.1-2.21v-.17L93.9,82V79.41L103.59,83v2.54Z"/><line class="cls-4" x1="135.18" y1="135.44" x2="152.78" y2="153.04"/><line class="cls-4" x1="135.18" y1="152.65" x2="152.78" y2="135.05"/><rect class="cls-5" x="83.05" y="123.8" width="10" height="19"/><rect class="cls-6" x="72.05" y="140.8" width="31" height="4"/></g></g></svg>